<?xml version="1.0" standalone="no"?>
<svg xmlns:xlink="http://www.w3.org/1999/xlink" id="wave" style="transform:rotate(180deg); transition: 0.3s" viewBox="0 0 1440 100" version="1.1" xmlns="http://www.w3.org/2000/svg"><defs><linearGradient id="sw-gradient-0" x1="0" x2="0" y1="1" y2="0"><stop stop-color="rgba(238, 238, 238, 1)" offset="0%"/><stop stop-color="rgba(238, 238, 238, 1)" offset="100%"/></linearGradient></defs><path style="transform:translate(0, 0px); opacity:1" fill="url(#sw-gradient-0)" d="M0,50L26.7,56.7C53.3,63,107,77,160,70C213.3,63,267,37,320,36.7C373.3,37,427,63,480,73.3C533.3,83,587,77,640,68.3C693.3,60,747,50,800,38.3C853.3,27,907,13,960,13.3C1013.3,13,1067,27,1120,33.3C1173.3,40,1227,40,1280,45C1333.3,50,1387,60,1440,68.3C1493.3,77,1547,83,1600,76.7C1653.3,70,1707,50,1760,36.7C1813.3,23,1867,17,1920,23.3C1973.3,30,2027,50,2080,51.7C2133.3,53,2187,37,2240,31.7C2293.3,27,2347,33,2400,45C2453.3,57,2507,73,2560,70C2613.3,67,2667,43,2720,30C2773.3,17,2827,13,2880,25C2933.3,37,2987,63,3040,73.3C3093.3,83,3147,77,3200,75C3253.3,73,3307,77,3360,76.7C3413.3,77,3467,73,3520,66.7C3573.3,60,3627,50,3680,41.7C3733.3,33,3787,27,3813,23.3L3840,20L3840,100L3813.3,100C3786.7,100,3733,100,3680,100C3626.7,100,3573,100,3520,100C3466.7,100,3413,100,3360,100C3306.7,100,3253,100,3200,100C3146.7,100,3093,100,3040,100C2986.7,100,2933,100,2880,100C2826.7,100,2773,100,2720,100C2666.7,100,2613,100,2560,100C2506.7,100,2453,100,2400,100C2346.7,100,2293,100,2240,100C2186.7,100,2133,100,2080,100C2026.7,100,1973,100,1920,100C1866.7,100,1813,100,1760,100C1706.7,100,1653,100,1600,100C1546.7,100,1493,100,1440,100C1386.7,100,1333,100,1280,100C1226.7,100,1173,100,1120,100C1066.7,100,1013,100,960,100C906.7,100,853,100,800,100C746.7,100,693,100,640,100C586.7,100,533,100,480,100C426.7,100,373,100,320,100C266.7,100,213,100,160,100C106.7,100,53,100,27,100L0,100Z"/></svg>